<svg width="108" height="96" viewBox="0 0 108 96" fill="none" xmlns="http://www.w3.org/2000/svg">
<rect width="12" height="12" fill="white"/>
<rect y="24" width="12" height="12" fill="white"/>
<rect y="12" width="12" height="12" fill="white"/>
<rect y="36" width="12" height="12" fill="white"/>
<rect y="60" width="12" height="12" fill="white"/>
<rect y="48" width="12" height="12" fill="white"/>
<rect x="48" y="84" width="12" height="12" fill="white"/>
<rect x="48" y="72" width="12" height="12" fill="white"/>
<rect x="72" y="84" width="12" height="12" fill="white"/>
<rect x="72" y="72" width="12" height="12" fill="white"/>
<rect x="24" y="84" width="12" height="12" fill="white"/>
<rect x="24" y="72" width="12" height="12" fill="white"/>
<rect y="84" width="12" height="12" fill="white"/>
<rect y="72" width="12" height="12" fill="white"/>
<rect x="12" y="36" width="12" height="12" fill="white"/>
<rect x="12" y="60" width="12" height="12" fill="white"/>
<rect x="12" y="48" width="12" height="12" fill="white"/>
<rect x="24" y="36" width="12" height="12" fill="white"/>
<rect x="24" y="60" width="12" height="12" fill="white"/>
<rect x="24" y="48" width="12" height="12" fill="white"/>
<rect x="36" y="36" width="12" height="12" fill="white"/>
<rect x="36" y="60" width="12" height="12" fill="white"/>
<rect x="36" y="48" width="12" height="12" fill="white"/>
<rect x="48" y="36" width="12" height="12" fill="white"/>
<rect x="48" y="60" width="12" height="12" fill="white"/>
<rect x="48" y="48" width="12" height="12" fill="white"/>
<rect x="60" y="60" width="12" height="12" fill="white"/>
<rect x="60" y="48" width="12" height="12" fill="white"/>
<rect x="72" y="36" width="12" height="12" fill="white"/>
<rect x="72" y="60" width="12" height="12" fill="white"/>
<rect x="72" y="48" width="12" height="12" fill="white"/>
<rect x="60" y="24" width="12" height="12" fill="white"/>
<rect x="72" y="24" width="12" height="12" fill="white"/>
<rect x="84" y="24" width="12" height="12" fill="white"/>
<rect x="84" y="60" width="12" height="12" fill="white"/>
<rect x="84" y="48" width="12" height="12" fill="white"/>
<rect x="12" width="12" height="12" fill="white"/>
<rect x="96" y="48" width="12" height="12" fill="white"/>
<rect x="96" y="36" width="12" height="12" fill="white"/>
<rect x="96" y="24" width="12" height="12" fill="white"/>
<rect x="84" width="12" height="12" fill="white"/>
<rect x="84" y="12" width="12" height="12" fill="white"/>
<rect x="72" y="12" width="12" height="12" fill="white"/>
<rect x="60" y="12" width="12" height="12" fill="white"/>
<rect x="48" width="12" height="12" fill="white"/>
<rect x="48" y="12" width="12" height="12" fill="white"/>
<rect x="48" y="24" width="12" height="12" fill="white"/>
<rect x="36" y="24" width="12" height="12" fill="white"/>
</svg>
